<?xml version="1.0" standalone="no"?>
<!DOCTYPE svg PUBLIC "-//W3C//DTD SVG 20010904//EN"
 "http://www.w3.org/TR/2001/REC-SVG-20010904/DTD/svg10.dtd">
<svg version="1.0" xmlns="http://www.w3.org/2000/svg"
 width="544.000000pt" height="544.000000pt" viewBox="0 0 544.000000 544.000000"
 preserveAspectRatio="xMidYMid meet">
<metadata>
Created by potrace 1.11, written by Peter Selinger 2001-2013
</metadata>
<g transform="translate(0.000000,544.000000) scale(0.100000,-0.100000)"
fill="#000000" stroke="none">
<path d="M3316 5420 c-137 -37 -295 -130 -420 -250 -215 -205 -295 -433 -236
-666 19 -72 145 -354 159 -354 13 0 470 230 555 278 259 150 448 340 508 509
15 45 19 77 16 143 -3 76 -8 95 -41 162 -44 91 -104 148 -183 178 -74 27 -257
27 -358 0z"/>
<path d="M3475 4200 c-95 -10 -216 -40 -328 -81 -111 -40 -210 -67 -287 -78
-83 -11 -194 6 -395 61 -259 71 -303 79 -450 85 -196 7 -310 -18 -495 -112
-183 -93 -354 -209 -495 -333 l-48 -43 119 -122 c66 -67 222 -227 347 -354
l227 -233 81 80 c248 244 516 377 829 410 246 27 462 -23 648 -148 82 -57 192
-178 230 -254 36 -75 72 -212 72 -280 l0 -48 -247 0 c-572 0 -1015 -46 -1394
-144 -506 -131 -828 -345 -1021 -677 -101 -175 -148 -374 -148 -629 0 -246 31
-395 120 -576 190 -389 570 -635 1091 -709 135 -19 413 -19 548 0 299 43 586
154 768 297 77 60 194 185 242 257 l36 54 3 -301 c2 -270 4 -302 18 -302 42 0
259 56 349 90 126 47 177 73 294 149 272 179 454 458 515 790 14 70 16 191 16
765 0 374 -5 735 -10 801 -55 649 -186 1007 -484 1323 -128 135 -248 209 -396
245 -82 20 -251 28 -355 17z m55 -2463 c0 -205 -14 -284 -69 -400 -107 -223
-368 -387 -706 -442 -338 -56 -665 59 -761 268 -27 57 -29 71 -28 172 0 142
22 200 104 288 110 117 291 203 533 252 161 32 303 42 645 44 l282 1 0 -183z"/>
</g>
</svg>
